<svg width="388" height="580" viewBox="0 0 388 580" fill="none" xmlns="http://www.w3.org/2000/svg">
<path d="M194 194C300.959 194 387.7 280.559 387.998 387.448H387.999C388 387.632 388 387.816 388 388C388 495.143 301.143 582 194 582C86.8568 582 1.88497e-06 495.143 0 388C49.6269 437.486 118.103 468.081 193.724 468.081C218.357 468.081 242.233 464.833 264.945 458.744C270.904 436.257 274.081 412.638 274.081 388.276C274.081 312.375 243.259 243.672 193.448 194.001C193.632 194 193.816 194 194 194ZM194 0C301.143 1.4902e-06 388 86.8568 388 194C338.373 144.514 269.897 113.919 194.276 113.919C169.642 113.919 145.767 117.166 123.054 123.255C117.094 145.742 113.919 169.362 113.919 193.724C113.919 269.625 144.741 338.328 194.552 387.999C194.368 388 194.184 388 194 388C87.0407 388 0.298568 301.441 0.000976562 194.552C0.000464683 194.368 0 194.184 0 194C1.14583e-08 193.349 0.00335821 192.698 0.00976562 192.048C0.0109839 191.924 0.0122223 191.8 0.0136719 191.677C0.0209572 191.056 0.0318173 190.436 0.0449219 189.816C0.047744 189.683 0.0515957 189.549 0.0546875 189.416C0.245404 181.191 0.946961 173.093 2.13086 165.151C2.1408 165.085 2.15014 165.018 2.16016 164.951C2.26774 164.235 2.37972 163.52 2.49512 162.806C2.50464 162.747 2.51386 162.688 2.52344 162.629C2.6385 161.921 2.75719 161.215 2.87988 160.51C2.89474 160.424 2.91081 160.339 2.92578 160.254C3.04589 159.569 3.16862 158.885 3.2959 158.203C3.31584 158.096 3.33731 157.99 3.35742 157.883C3.62896 156.441 3.91548 155.004 4.21875 153.573C4.23629 153.49 4.25481 153.408 4.27246 153.325C4.70941 151.277 5.17963 149.241 5.68066 147.218C5.77057 146.855 5.86216 146.492 5.9541 146.13C6.05772 145.722 6.16137 145.314 6.26758 144.906C6.36152 144.546 6.45775 144.187 6.55371 143.827C6.6642 143.413 6.77455 143 6.8877 142.587C6.97787 142.258 7.07025 141.93 7.16211 141.602C7.27978 141.181 7.39813 140.761 7.51855 140.342C7.6163 140.001 7.71587 139.662 7.81543 139.322C7.932 138.925 8.04892 138.527 8.16797 138.131C8.26788 137.798 8.36906 137.466 8.4707 137.134C8.6041 136.698 8.73765 136.263 8.87402 135.828C8.98623 135.471 9.1016 135.114 9.21582 134.758C9.3347 134.387 9.45317 134.016 9.57422 133.646C9.68596 133.304 9.7995 132.963 9.91309 132.622C10.0476 132.219 10.1823 131.815 10.3193 131.413C10.4253 131.102 10.5331 130.792 10.6406 130.481C10.7918 130.045 10.9425 129.609 11.0967 129.174C11.2022 128.876 11.3101 128.579 11.417 128.282C11.5703 127.856 11.7227 127.43 11.8789 127.006C11.9918 126.699 12.1072 126.393 12.2217 126.087C12.3824 125.657 12.5434 125.227 12.707 124.799C12.8272 124.484 12.9506 124.171 13.0723 123.857C13.227 123.458 13.3798 123.059 13.5371 122.661C13.6688 122.328 13.804 121.997 13.9375 121.665C14.093 121.278 14.2474 120.891 14.4053 120.506C14.5467 120.161 14.6916 119.817 14.835 119.473C14.9904 119.099 15.1441 118.726 15.3018 118.354C15.4838 117.924 15.6704 117.496 15.8555 117.068C15.9745 116.793 16.0907 116.517 16.2109 116.242C16.4854 115.615 16.765 114.991 17.0459 114.368C17.0833 114.285 17.1198 114.202 17.1572 114.119C17.2883 113.829 17.4222 113.541 17.5547 113.252C18.0411 112.191 18.5351 111.134 19.04 110.083C19.7383 108.63 20.4544 107.187 21.1875 105.754C21.3742 105.389 21.564 105.026 21.7529 104.662C21.9088 104.362 22.0633 104.062 22.2207 103.763C22.4046 103.413 22.5914 103.066 22.7773 102.718C22.9629 102.37 23.1474 102.023 23.335 101.677C23.4933 101.385 23.6537 101.094 23.8135 100.803C24.021 100.425 24.2285 100.047 24.4385 99.6699C24.6172 99.3493 24.799 99.0304 24.9795 98.7109C25.1803 98.3555 25.38 97.9995 25.583 97.6455C25.7542 97.3469 25.9278 97.0496 26.1006 96.752C26.3118 96.3882 26.5229 96.0244 26.7363 95.6621C26.9344 95.3259 27.1349 94.9912 27.335 94.6562C27.5203 94.346 27.7056 94.0357 27.8926 93.7266C28.1123 93.3634 28.3336 93.0013 28.5557 92.6396C28.7341 92.3491 28.9119 92.0581 29.0918 91.7686C29.307 91.4221 29.5248 91.0774 29.7422 90.7324C29.9448 90.4108 30.1471 90.0889 30.3516 89.7686C30.5503 89.4572 30.7507 89.147 30.9512 88.8369C31.1621 88.5106 31.3731 88.1844 31.5859 87.8594C31.8076 87.5209 32.0312 87.1837 32.2549 86.8467C32.4488 86.5545 32.6434 86.2627 32.8389 85.9717C33.065 85.635 33.2923 85.2991 33.5205 84.9639C33.7301 84.656 33.9401 84.3486 34.1514 84.042C34.3729 83.7205 34.5959 83.4001 34.8193 83.0801C35.0347 82.7716 35.2506 82.4635 35.4678 82.1562C35.6964 81.8328 35.9267 81.5105 36.1572 81.1885C36.3624 80.9019 36.5677 80.6155 36.7744 80.3301C37.0185 79.993 37.2636 79.6567 37.5098 79.3213C37.729 79.0226 37.95 78.7251 38.1709 78.4277C38.3971 78.1232 38.6236 77.8188 38.8516 77.5156C39.0842 77.2062 39.3182 76.8978 39.5527 76.5898C39.7822 76.2885 40.012 75.9875 40.2432 75.6875C40.4821 75.3775 40.7221 75.0683 40.9629 74.7598C41.187 74.4726 41.411 74.1853 41.6367 73.8994C41.8796 73.5917 42.1245 73.2857 42.3691 72.9795C42.6204 72.6651 42.8718 72.3509 43.125 72.0381C43.3268 71.7888 43.5294 71.5403 43.7324 71.292C44.0077 70.9554 44.2831 70.6189 44.5605 70.2842C44.7766 70.0235 44.9945 69.7644 45.2119 69.5049C45.4988 69.1623 45.786 68.82 46.0752 68.4795C46.2647 68.2564 46.456 68.0348 46.6465 67.8125C46.9321 67.4793 47.2171 67.1457 47.5049 66.8145C47.7674 66.5123 48.0325 66.2126 48.2969 65.9121C48.5347 65.6418 48.7714 65.3705 49.0107 65.1016C49.2481 64.8348 49.4878 64.5701 49.7266 64.3047C50.019 63.9796 50.3109 63.6541 50.6055 63.3311C50.791 63.1276 50.9787 62.9263 51.165 62.7236C51.4811 62.3799 51.7967 62.0358 52.1152 61.6943C52.3462 61.4468 52.5793 61.2014 52.8115 60.9551C53.1077 60.6409 53.4029 60.3259 53.7012 60.0137C53.9737 59.7283 54.2491 59.4458 54.5234 59.1621C54.7636 58.9137 55.0026 58.6641 55.2441 58.417C55.5305 58.124 55.8192 57.8332 56.1074 57.542C58.2391 55.388 60.4213 53.2842 62.6514 51.2314C62.9368 50.9687 63.2208 50.7044 63.5078 50.4434C63.8002 50.1774 64.0956 49.9146 64.3896 49.6504C64.652 49.4147 64.9131 49.1777 65.1768 48.9434C65.5278 48.6314 65.8821 48.3231 66.2354 48.0137C66.4562 47.8202 66.6757 47.6251 66.8975 47.4326C67.2184 47.1541 67.5415 46.878 67.8643 46.6016C68.1271 46.3764 68.3893 46.1505 68.6533 45.9268C69.0036 45.6299 69.3566 45.3364 69.709 45.042C69.9415 44.8478 70.1728 44.6521 70.4062 44.459C70.714 44.2043 71.0237 43.952 71.333 43.6992C71.62 43.4647 71.9069 43.23 72.1953 42.9971C72.4895 42.7595 72.7854 42.524 73.0811 42.2881C73.3863 42.0445 73.6913 41.8004 73.998 41.5586C74.2712 41.3433 74.546 41.1299 74.8203 40.916C75.1553 40.6548 75.4904 40.3938 75.8271 40.1348C76.1236 39.9068 76.422 39.6814 76.7197 39.4551C77.0157 39.2301 77.3111 39.0045 77.6084 38.7812C77.9175 38.5491 78.2276 38.3182 78.5381 38.0879C78.8503 37.8563 79.1629 37.6253 79.4766 37.3955C79.7865 37.1684 80.0978 36.943 80.4092 36.7178C80.7169 36.4951 81.0249 36.2726 81.334 36.0518C81.6411 35.8323 81.9493 35.6142 82.2578 35.3965C82.5776 35.1708 82.8976 34.9455 83.2188 34.7217C83.5126 34.5169 83.8075 34.3135 84.1025 34.1104C84.4531 33.8689 84.804 33.6279 85.1562 33.3887C85.4375 33.1977 85.7196 33.0079 86.002 32.8184C86.3547 32.5816 86.7082 32.3459 87.0625 32.1113C87.3419 31.9264 87.6219 31.7421 87.9023 31.5586C88.2768 31.3135 88.6521 31.0697 89.0283 30.8271C89.2938 30.656 89.5598 30.4853 89.8262 30.3154C90.1897 30.0836 90.5538 29.8525 90.9189 29.623C91.2282 29.4287 91.5382 29.2356 91.8486 29.043C92.1793 28.8378 92.5108 28.6339 92.8428 28.4307C93.1678 28.2317 93.4931 28.0331 93.8193 27.8359C94.1554 27.6329 94.4927 27.4316 94.8301 27.2305C95.1411 27.0451 95.4525 26.8604 95.7646 26.6768C96.1336 26.4597 96.5035 26.244 96.874 26.0293C97.1693 25.8582 97.4645 25.6871 97.7607 25.5176C98.113 25.3159 98.4666 25.1165 98.8203 24.917C99.144 24.7344 99.4672 24.5509 99.792 24.3701C100.172 24.1589 100.552 23.95 100.934 23.7412C101.214 23.5876 101.495 23.4345 101.776 23.2822C102.148 23.0809 102.521 22.8816 102.895 22.6826C103.228 22.505 103.561 22.3271 103.896 22.1514C104.286 21.946 104.679 21.7438 105.071 21.541C105.336 21.4042 105.6 21.2655 105.865 21.1299C106.329 20.8928 106.795 20.6592 107.262 20.4258C107.478 20.3175 107.694 20.208 107.91 20.1006C108.383 19.866 108.858 19.6351 109.333 19.4043C109.56 19.294 109.786 19.1817 110.014 19.0723C110.434 18.8702 110.856 18.6718 111.277 18.4727C111.572 18.3335 111.867 18.1934 112.162 18.0557C112.71 17.8002 113.26 17.5483 113.812 17.2979C113.938 17.2405 114.063 17.1821 114.189 17.125C114.757 16.8685 115.327 16.6164 115.897 16.3652C116.054 16.2965 116.209 16.2256 116.365 16.1572C116.75 15.9892 117.136 15.8257 117.521 15.6602C119.663 14.7406 121.824 13.8585 124.005 13.0146C124.339 12.8853 124.673 12.7535 125.008 12.626C125.466 12.4517 125.925 12.2822 126.385 12.1113C126.632 12.0194 126.878 11.9249 127.126 11.834C127.618 11.6532 128.112 11.4767 128.606 11.2998C128.851 11.2124 129.094 11.1236 129.339 11.0371C129.723 10.9013 130.109 10.7692 130.494 10.6357C130.87 10.5058 131.245 10.3748 131.621 10.2471C131.908 10.1496 132.197 10.0551 132.484 9.95898C132.943 9.8056 133.403 9.65199 133.863 9.50195C134.203 9.39135 134.543 9.28358 134.884 9.1748C135.261 9.05432 135.638 8.9327 136.016 8.81445C136.399 8.69452 136.784 8.57757 137.168 8.45996C137.557 8.34107 137.945 8.22198 138.335 8.10547C138.691 7.99898 139.048 7.89551 139.405 7.79102C139.774 7.68323 140.142 7.57441 140.511 7.46875C140.938 7.34635 141.367 7.22696 141.796 7.10742C142.132 7.01385 142.467 6.91993 142.804 6.82812C143.169 6.72842 143.535 6.63082 143.901 6.5332C144.319 6.42183 144.737 6.3108 145.156 6.20215C145.507 6.11117 145.858 6.02168 146.21 5.93262C146.605 5.83254 147 5.73339 147.396 5.63574C147.996 5.48789 148.596 5.34148 149.198 5.19922C149.233 5.1909 149.269 5.18213 149.304 5.17383C150.787 4.82403 152.277 4.4913 153.773 4.17578C153.796 4.17097 153.819 4.16593 153.842 4.16113C155.319 3.85019 156.803 3.55641 158.292 3.2793C158.337 3.27099 158.381 3.26218 158.426 3.25391C159.908 2.97924 161.396 2.72221 162.89 2.48145C162.958 2.47048 163.026 2.45914 163.094 2.44824C163.822 2.33162 164.552 2.21884 165.283 2.11035C165.322 2.10466 165.36 2.09942 165.398 2.09375C166.109 1.98874 166.821 1.88829 167.534 1.79102C167.631 1.77778 167.728 1.76407 167.825 1.75098C168.517 1.65771 169.209 1.56838 169.903 1.48242C169.992 1.47141 170.081 1.46011 170.17 1.44922C170.845 1.3665 171.522 1.28768 172.199 1.21191C172.346 1.19554 172.492 1.17914 172.639 1.16309C173.287 1.09206 173.937 1.02458 174.587 0.959961C174.7 0.94877 174.812 0.936779 174.925 0.925781C175.629 0.857015 176.335 0.792652 177.042 0.731445C177.117 0.724962 177.192 0.718312 177.267 0.711914C177.996 0.649578 178.727 0.591346 179.459 0.537109C179.519 0.532647 179.579 0.527845 179.64 0.523438C180.349 0.471544 181.059 0.423154 181.771 0.378906C181.903 0.370648 182.036 0.363459 182.169 0.355469C183.662 0.265638 185.16 0.192579 186.662 0.136719C186.727 0.134322 186.791 0.132216 186.855 0.129883C187.6 0.102946 188.345 0.0790802 189.091 0.0605469C189.16 0.0588251 189.229 0.0582896 189.299 0.0566406C190.046 0.0388597 190.795 0.0239466 191.545 0.0146484C191.577 0.0142488 191.609 0.0140558 191.642 0.0136719C192.427 0.00432014 193.213 6.06078e-08 194 0Z" fill="black"/>
</svg>
